<?xml version="1.0" encoding="UTF-8"?>
<svg xmlns="http://www.w3.org/2000/svg" xmlns:xlink="http://www.w3.org/1999/xlink" width="24px" height="24px" viewBox="0 0 24 24" version="1.1">
<g id="surface1">
<circle cx="12" cy="12" r="12" fill="#FFFFFF"/>
<path style=" stroke:none;fill-rule:nonzero;fill:rgb(0%,0%,0%);fill-opacity:1;" d="M 12.800781 12.800781 L 11.101562 14.5 L 9.5 12.898438 L 11.199219 11.199219 C 11.5 10.800781 11.460938 10.246094 11.105469 9.894531 C 10.753906 9.539062 10.199219 9.5 9.800781 9.800781 L 8.101562 11.5 L 7.449219 10.851562 C 7.269531 10.652344 7.015625 10.542969 6.75 10.542969 C 6.484375 10.542969 6.230469 10.652344 6.050781 10.851562 L 4.550781 12.351562 C 3.597656 13.265625 3.058594 14.527344 3.050781 15.851562 C 3.03125 16.855469 3.347656 17.84375 3.949219 18.648438 L 2.300781 20.300781 C 2.105469 20.480469 1.992188 20.734375 1.992188 21 C 1.992188 21.265625 2.105469 21.519531 2.300781 21.699219 C 2.480469 21.894531 2.734375 22.007812 3 22.007812 C 3.265625 22.007812 3.519531 21.894531 3.699219 21.699219 L 5.300781 20.101562 C 6.160156 20.71875 7.191406 21.050781 8.25 21.050781 C 9.578125 21.046875 10.851562 20.527344 11.800781 19.601562 L 13.300781 18.101562 C 13.488281 17.914062 13.597656 17.664062 13.601562 17.398438 C 13.617188 17.132812 13.503906 16.871094 13.300781 16.699219 L 12.5 15.898438 L 14.199219 14.199219 C 14.5 13.800781 14.460938 13.246094 14.105469 12.894531 C 13.753906 12.539062 13.199219 12.5 12.800781 12.800781 Z M 12.800781 12.800781 "/>
<path style=" stroke:none;fill-rule:nonzero;fill:rgb(0%,0%,0%);fill-opacity:1;" d="M 21.699219 2.300781 C 21.519531 2.105469 21.265625 1.992188 21 1.992188 C 20.734375 1.992188 20.480469 2.105469 20.300781 2.300781 L 18.601562 4 C 16.621094 2.523438 13.859375 2.714844 12.101562 4.449219 L 10.601562 5.949219 C 10.410156 6.132812 10.304688 6.386719 10.300781 6.648438 C 10.285156 6.917969 10.394531 7.175781 10.601562 7.351562 L 16.449219 13.199219 C 16.628906 13.394531 16.882812 13.507812 17.148438 13.507812 C 17.417969 13.507812 17.671875 13.394531 17.851562 13.199219 L 19.351562 11.75 C 20.289062 10.808594 20.8125 9.53125 20.800781 8.199219 C 20.796875 7.226562 20.519531 6.273438 20 5.449219 L 21.699219 3.699219 C 21.894531 3.519531 22.007812 3.265625 22.007812 3 C 22.007812 2.734375 21.894531 2.480469 21.699219 2.300781 Z M 21.699219 2.300781 "/>
</g>
</svg>
